<svg xmlns="http://www.w3.org/2000/svg" version="1.1" xmlns:xlink="http://www.w3.org/1999/xlink" xmlns:svgjs="http://svgjs.dev/svgjs" width="1500" height="1500" viewBox="0 0 1500 1500"><rect width="1500" height="1500" fill="#ffffff"></rect><g transform="matrix(0.6666666666666666,0,0,0.6666666666666666,249.30897448130793,325.6354838709677)"><svg viewBox="0 0 293 248" data-background-color="#ffffff" preserveAspectRatio="xMidYMid meet" height="1269" width="1500" xmlns="http://www.w3.org/2000/svg" xmlns:xlink="http://www.w3.org/1999/xlink"><g id="tight-bounds" transform="matrix(1,0,0,1,0.2024704769767709,0.4000000000000057)"><svg viewBox="0 0 292.59505904604646 247.2" height="247.2" width="292.59505904604646"><g><svg viewBox="0 0 395.52 334.1565107721565" height="247.2" width="292.59505904604646"><g transform="matrix(1,0,0,1,0,248.62891953128053)"><svg viewBox="0 0 395.52 85.52759124087592" height="85.52759124087592" width="395.52"><g id="textblocktransform"><svg viewBox="0 0 395.52 85.52759124087592" height="85.52759124087592" width="395.52" id="textblock"><g><svg viewBox="0 0 395.52 85.52759124087592" height="85.52759124087592" width="395.52"><g transform="matrix(1,0,0,1,0,0)"><svg width="395.52" viewBox="0.63 -32.29 152.21 32.92" height="85.52759124087592" data-palette-color="#aa9903"><path d="M4.62 0L0.63 0 13.85-32.29 13.92-32.29 27.15 0 22.95 0 19.27-9.27 8.33-9.27 4.62 0ZM12.12-18.75L9.65-12.57 17.95-12.57 15.49-18.75Q15.03-19.93 14.62-21.08 14.2-22.22 13.78-23.82L13.78-23.82Q13.37-22.22 12.99-21.09 12.6-19.97 12.12-18.75L12.12-18.75ZM35.9 0L32.15 0 32.15-32.29 46.66-12.29 60.9-32.29 60.9 0 56.94 0 56.94-14.44Q56.94-15.87 56.98-17.55 57.01-19.24 57.22-21.39L57.22-21.39Q56.14-19.48 55.12-18.04 54.09-16.6 53.26-15.38L53.26-15.38 46.53-5.83 39.58-15.38Q38.71-16.6 37.72-18.04 36.73-19.48 35.62-21.39L35.62-21.39Q35.83-19.24 35.87-17.55 35.9-15.87 35.9-14.44L35.9-14.44 35.9 0ZM79.16 0.42L79.16 0.42Q76.21 0.42 73.92-0.89 71.63-2.19 70.32-4.5 69.02-6.81 69.02-9.83L69.02-9.83 69.02-31.25 72.98-31.25 72.98-9.97Q72.98-6.88 74.75-5 76.52-3.13 79.23-3.13L79.23-3.13Q81.9-3.13 83.69-4.98 85.48-6.84 85.48-9.83L85.48-9.83 85.48-31.25 89.3-31.25 89.3-9.97Q89.3-6.91 88-4.57 86.7-2.22 84.42-0.9 82.15 0.42 79.16 0.42ZM111.42 0.63L111.42 0.63Q108.01 0.63 105.06-0.64 102.11-1.91 99.87-4.15 97.63-6.39 96.38-9.32 95.13-12.26 95.13-15.63L95.13-15.63Q95.13-18.99 96.4-21.93 97.67-24.86 99.91-27.1 102.15-29.34 105.1-30.61 108.05-31.88 111.45-31.88L111.45-31.88Q114.78-31.88 117.7-30.64 120.62-29.41 122.84-27.26L122.84-27.26 121.69-22.47Q120.1-25.03 117.41-26.58 114.71-28.13 111.45-28.13L111.45-28.13Q108.01-28.13 105.25-26.44 102.49-24.76 100.86-21.93 99.23-19.1 99.23-15.63L99.23-15.63Q99.23-12.22 100.84-9.38 102.46-6.53 105.22-4.83 107.98-3.13 111.42-3.13L111.42-3.13Q113.36-3.13 115.11-3.59 116.87-4.06 118.33-4.93L118.33-4.93 118.33-13.13 109.71-13.13 109.71-16.67 122.15-16.67 122.15-2.92Q120.03-1.15 117.23-0.26 114.44 0.63 111.42 0.63ZM130.3 0L126.31 0 139.54-32.29 139.61-32.29 152.84 0 148.64 0 144.96-9.27 134.02-9.27 130.3 0ZM137.8-18.75L135.34-12.57 143.64-12.57 141.17-18.75Q140.72-19.93 140.3-21.08 139.89-22.22 139.47-23.82L139.47-23.82Q139.05-22.22 138.67-21.09 138.29-19.97 137.8-18.75L137.8-18.75Z" opacity="1" transform="matrix(1,0,0,1,0,0)" fill="#000000" class="wordmark-text-0" data-fill-palette-color="primary" id="text-0"></path></svg></g></svg></g></svg></g></svg></g><g transform="matrix(1,0,0,1,93.63655186414076,0)"><svg viewBox="0 0 208.24689627171847 208.24689627171847" height="208.24689627171847" width="208.24689627171847"><g><svg></svg></g><g id="icon-0"><svg viewBox="0 0 208.24689627171847 208.24689627171847" height="208.24689627171847" width="208.24689627171847"><g><path d="M0 104.123c0-57.506 46.618-104.123 104.123-104.123 57.506 0 104.123 46.618 104.124 104.123 0 57.506-46.618 104.123-104.124 104.124-57.506 0-104.123-46.618-104.123-104.124zM104.123 200.534c53.246 0 96.41-43.164 96.411-96.411 0-53.246-43.164-96.41-96.411-96.41-53.246 0-96.41 43.164-96.41 96.41 0 53.246 43.164 96.41 96.41 96.411z" data-fill-palette-color="accent" fill="#000000" stroke="transparent"></path><ellipse rx="103.08221365450063" ry="103.08221365450063" cx="104.12344813585923" cy="104.12344813585923" fill="#000000" stroke="transparent" stroke-width="0" fill-opacity="1" data-fill-palette-color="accent"></ellipse></g><g transform="matrix(1,0,0,1,43.86740034569458,52.81288783780475)"><svg viewBox="0 0 120.51209558032932 102.62112059610897" height="102.62112059610897" width="120.51209558032932"><g><svg xmlns="http://www.w3.org/2000/svg" xmlns:xlink="http://www.w3.org/1999/xlink" version="1.1" x="0" y="0" viewBox="32.3 46.5 191.3 162.9" style="enable-background:new 0 0 256 256;" xml:space="preserve" height="102.62112059610897" width="120.51209558032932" class="icon-dxe-0" data-fill-palette-color="quaternary" id="dxe-0"><g fill="#ffffff" data-fill-palette-color="quaternary"><path d="M84.5 82.1C93.5 82.1 100.9 75.4 102.1 66.7H132.5L145.5 85.5C146 86.2 146.7 86.5 147.5 86.5H221.2C222.5 86.5 223.6 85.4 223.6 84.1S222.5 81.7 221.2 81.7H148.7L135.7 62.9C135.2 62.2 134.5 61.9 133.7 61.9H102C100.8 53.2 93.4 46.5 84.4 46.5 74.6 46.5 66.6 54.5 66.6 64.3S74.7 82.1 84.5 82.1M84.5 51.4C91.6 51.4 97.4 57.2 97.4 64.3S91.6 77.2 84.5 77.2 71.6 71.4 71.6 64.3 77.3 51.4 84.5 51.4" fill="#ffffff" data-fill-palette-color="quaternary"></path><path d="M221.2 109.5H144.5C143.3 100.8 135.9 94.1 126.9 94.1 117.1 94.1 109.1 102.1 109.1 111.9S117.1 129.7 126.9 129.7C135.9 129.7 143.3 123 144.5 114.3H221.2C222.5 114.3 223.6 113.2 223.6 111.9S222.5 109.5 221.2 109.5M126.9 124.9C119.8 124.9 114 119.1 114 112S119.8 99 126.9 99 139.8 104.8 139.8 111.9C139.8 119.1 134 124.9 126.9 124.9" fill="#ffffff" data-fill-palette-color="quaternary"></path><path d="M221.2 140.3H154.3C153.5 140.3 152.7 140.7 152.2 141.4L142.8 156.4H101.6L91.4 137.4C91 136.6 90.2 136.1 89.3 136.1H67.7C66.5 127.4 59.1 120.7 50.1 120.7 40.3 120.7 32.3 128.7 32.3 138.5S40.3 156.3 50.1 156.3C59.1 156.3 66.5 149.6 67.7 140.9H87.8L98 159.9C98.4 160.7 99.2 161.2 100.1 161.2H144.1C144.9 161.2 145.7 160.8 146.2 160.1L155.6 145.1H221.1C222.4 145.1 223.5 144 223.5 142.7 223.6 141.4 222.5 140.3 221.2 140.3M50.1 151.6C43 151.6 37.2 145.8 37.2 138.7S43 125.8 50.1 125.8 63 131.6 63 138.7C63.1 145.8 57.3 151.6 50.1 151.6" fill="#ffffff" data-fill-palette-color="quaternary"></path><path d="M221.2 168.6H182.6C181.7 168.6 180.9 169.1 180.5 169.8L169.1 189.2H110.9C109.7 180.5 102.3 173.8 93.3 173.8 83.5 173.8 75.5 181.8 75.5 191.6S83.5 209.4 93.3 209.4C102.3 209.4 109.7 202.7 110.9 194H170.5C171.4 194 172.2 193.5 172.6 192.8L184 173.4H221.2C222.5 173.4 223.6 172.3 223.6 171S222.5 168.6 221.2 168.6M93.3 204.6C86.2 204.6 80.4 198.8 80.4 191.7S86.2 178.8 93.3 178.8 106.2 184.6 106.2 191.7C106.3 198.8 100.5 204.6 93.3 204.6" fill="#ffffff" data-fill-palette-color="quaternary"></path></g></svg></g></svg></g></svg></g></svg></g><g></g></svg></g><defs></defs></svg><rect width="292.59505904604646" height="247.2" fill="none" stroke="none" visibility="hidden"></rect></g></svg></g></svg>