<?xml version="1.0" encoding="UTF-8"?>
<!DOCTYPE svg PUBLIC "-//W3C//DTD SVG 1.1//EN" "http://www.w3.org/Graphics/SVG/1.1/DTD/svg11.dtd">
<svg xmlns="http://www.w3.org/2000/svg" version="1.1" width="391px" height="419px" style="shape-rendering:geometricPrecision; text-rendering:geometricPrecision; image-rendering:optimizeQuality; fill-rule:evenodd; clip-rule:evenodd" xmlns:xlink="http://www.w3.org/1999/xlink">
<g><path style="opacity:0.921" fill="#fefffe" d="M 192.5,1.5 C 194.655,1.37201 196.655,1.87201 198.5,3C 226.545,43.4505 243.379,88.2838 249,137.5C 249.966,147.813 250.632,158.146 251,168.5C 264.134,182.122 276.801,196.122 289,210.5C 290.632,237.784 290.965,265.118 290,292.5C 289.438,299.126 285.938,301.293 279.5,299C 265.333,282.833 251.167,266.667 237,250.5C 234.736,256.972 231.903,263.139 228.5,269C 217.235,270.134 205.901,270.634 194.5,270.5C 184.167,270.333 173.833,270.167 163.5,270C 162.069,269.535 160.903,268.701 160,267.5C 157.667,262.167 155.333,256.833 153,251.5C 139.185,267.616 125.018,283.449 110.5,299C 107.833,299.667 105.167,299.667 102.5,299C 101.874,298.25 101.374,297.416 101,296.5C 100.333,267.833 100.333,239.167 101,210.5C 113.333,196.833 125.667,183.167 138,169.5C 139.328,109.523 156.328,54.5233 189,4.5C 190.145,3.36362 191.312,2.36362 192.5,1.5 Z M 193.5,21.5 C 194.496,21.4142 195.329,21.7476 196,22.5C 229.378,77.6853 242.378,137.352 235,201.5C 231.929,220.288 226.762,238.455 219.5,256C 202.823,256.833 186.157,256.666 169.5,255.5C 149.236,205.291 146.069,153.957 160,101.5C 167.616,73.2774 178.783,46.6108 193.5,21.5 Z M 192.5,99.5 C 207.023,101.23 211.856,108.897 207,122.5C 199.383,131.444 191.383,131.777 183,123.5C 177.496,112.164 180.662,104.164 192.5,99.5 Z M 138.5,188.5 C 141.124,204.462 143.957,220.462 147,236.5C 136.373,249.462 125.373,262.129 114,274.5C 113.333,254.833 113.333,235.167 114,215.5C 122.373,206.63 130.54,197.63 138.5,188.5 Z M 249.5,188.5 C 252.394,189.882 254.894,191.882 257,194.5C 263.1,201.689 269.433,208.689 276,215.5C 276.667,235.167 276.667,254.833 276,274.5C 264.14,261.261 252.64,247.761 241.5,234C 246.164,219.178 248.831,204.012 249.5,188.5 Z"/></g>
<g><path style="opacity:0.925" fill="#fefffe" d="M 190.5,86.5 C 206.653,85.8205 217.153,93.1538 222,108.5C 224.333,126.347 216.833,137.513 199.5,142C 175.564,142.065 165.064,130.232 168,106.5C 171.642,95.3508 179.142,88.6841 190.5,86.5 Z M 192.5,99.5 C 180.662,104.164 177.496,112.164 183,123.5C 191.383,131.777 199.383,131.444 207,122.5C 211.856,108.897 207.023,101.23 192.5,99.5 Z"/></g>
<g><path style="opacity:0.907" fill="#fefffe" d="M 153.5,282.5 C 157.355,281.845 160.188,283.179 162,286.5C 162.667,315.167 162.667,343.833 162,372.5C 159.661,377.256 156.161,378.423 151.5,376C 150.107,374.829 149.273,373.329 149,371.5C 148.305,342.822 148.639,314.156 150,285.5C 151.145,284.364 152.312,283.364 153.5,282.5 Z"/></g>
<g><path style="opacity:0.934" fill="#fefffe" d="M 232.5,282.5 C 236.09,282.544 238.59,284.211 240,287.5C 240.667,316.167 240.667,344.833 240,373.5C 235.951,378.818 231.951,378.818 228,373.5C 227.333,344.5 227.333,315.5 228,286.5C 228.907,284.391 230.407,283.058 232.5,282.5 Z"/></g>
<g><path style="opacity:0.923" fill="#fefffe" d="M 192.5,319.5 C 196.683,318.846 199.516,320.512 201,324.5C 201.667,353.5 201.667,382.5 201,411.5C 198.434,415.409 194.934,416.409 190.5,414.5C 189.808,413.975 189.308,413.308 189,412.5C 188.333,382.5 188.333,352.5 189,322.5C 190.145,321.364 191.312,320.364 192.5,319.5 Z"/></g>
</svg>
